<svg width="42" height="28" viewBox="0 0 42 28" fill="none" xmlns="http://www.w3.org/2000/svg">
<path d="M0.72417 0.241211C0.324269 0.241211 0 0.565397 0 0.965299V27.0342C0 27.4341 0.324269 27.7584 0.72417 27.7584H9.41381V0.241211H0.72417Z" fill="#FF4B55"/>
<path d="M41.2756 0.241211H32.5859V27.7584H41.2756C41.6755 27.7584 41.9997 27.4341 41.9997 27.0342V0.965299C41.9997 0.565397 41.6755 0.241211 41.2756 0.241211Z" fill="#FF4B55"/>
<path d="M25.3943 17.1793L29.6914 14.724L28.7054 14.231C28.4288 14.0927 28.2705 13.7941 28.3114 13.4875L28.6323 11.0822L26.8131 11.6115C26.4112 11.7285 25.9941 11.4812 25.9037 11.0726L25.7295 10.2851L24.0214 12.2842C23.7846 12.5613 23.3335 12.3497 23.3952 11.9904L24.1247 7.74873L23.0079 8.05421C22.6817 8.14346 22.3371 7.99498 22.1781 7.69655L21.002 5.4923V5.48901L21.0012 5.49065L21.0003 5.48901V5.4923L19.8242 7.69655C19.665 7.9949 19.3204 8.14338 18.9942 8.05421L17.8773 7.74873L18.6068 11.9904C18.6685 12.3495 18.2174 12.5612 17.9805 12.2842L16.2724 10.2851L16.0982 11.0726C16.0078 11.4813 15.5907 11.7284 15.1889 11.6115L13.3696 11.0822L13.6905 13.4875C13.7314 13.794 13.5731 14.0927 13.2966 14.231L12.3105 14.724L16.6076 17.1794C17.0527 17.4338 17.2478 17.9732 17.0682 18.4534L16.7008 19.4359L20.3828 19.1215C20.5866 19.1041 20.76 19.2682 20.754 19.4725L20.638 23.4136H21.3622L21.2461 19.4724C21.2401 19.2679 21.4135 19.104 21.6173 19.1214L25.301 19.4359L24.9337 18.4534C24.7542 17.9732 24.9492 17.4336 25.3943 17.1793Z" fill="#FF4B55"/>
</svg>
