<svg width="19" height="19" viewBox="0 0 19 19" fill="none" xmlns="http://www.w3.org/2000/svg">
<path d="M16.596 0.0810547H2.18488C1.66369 0.0810547 1.16385 0.288097 0.795308 0.656636C0.426769 1.02517 0.219727 1.52502 0.219727 2.04621L0.219727 16.4574C0.219727 16.9786 0.426769 17.4784 0.795308 17.8469C1.16385 18.2155 1.66369 18.4225 2.18488 18.4225H7.804V12.1868H5.22474V9.25179H7.804V7.01478C7.804 4.47031 9.31881 3.06482 11.6389 3.06482C12.7501 3.06482 13.912 3.26297 13.912 3.26297V5.76036H12.6317C11.3704 5.76036 10.9769 6.54315 10.9769 7.34599V9.25179H13.7928L13.3425 12.1868H10.9769V18.4225H16.596C17.1172 18.4225 17.6171 18.2155 17.9856 17.8469C18.3541 17.4784 18.5612 16.9786 18.5612 16.4574V2.04621C18.5612 1.52502 18.3541 1.02517 17.9856 0.656636C17.6171 0.288097 17.1172 0.0810547 16.596 0.0810547Z" fill="black"/>
</svg>
