<svg width="19" height="20" viewBox="0 0 19 20" fill="none" xmlns="http://www.w3.org/2000/svg">
<rect y="0.917236" width="18.3415" height="18.3415" rx="3" fill="black"/>
<path d="M9.1707 6.41435C7.13773 6.41435 5.49703 8.05505 5.49703 10.088C5.49703 12.121 7.13773 13.7617 9.1707 13.7617C11.2037 13.7617 12.8444 12.121 12.8444 10.088C12.8444 8.05505 11.2037 6.41435 9.1707 6.41435ZM9.1707 12.4756C7.85599 12.4756 6.78308 11.4027 6.78308 10.088C6.78308 8.77331 7.85599 7.7004 9.1707 7.7004C10.4854 7.7004 11.5583 8.77331 11.5583 10.088C11.5583 11.4027 10.4854 12.4756 9.1707 12.4756ZM12.9948 5.40772C12.5202 5.40772 12.1369 5.79103 12.1369 6.26568C12.1369 6.74034 12.5202 7.12365 12.9948 7.12365C13.4695 7.12365 13.8528 6.74213 13.8528 6.26568C13.8529 6.15297 13.8308 6.04134 13.7878 5.93719C13.7447 5.83303 13.6815 5.73839 13.6018 5.6587C13.5221 5.579 13.4275 5.51581 13.3233 5.47274C13.2192 5.42967 13.1075 5.40758 12.9948 5.40772ZM16.3317 10.088C16.3317 9.0993 16.3407 8.11953 16.2852 7.1326C16.2297 5.98626 15.9681 4.96888 15.1299 4.13062C14.2898 3.29057 13.2742 3.03085 12.1279 2.97533C11.1392 2.9198 10.1594 2.92876 9.17249 2.92876C8.18377 2.92876 7.20401 2.9198 6.21708 2.97533C5.07074 3.03085 4.05336 3.29236 3.2151 4.13062C2.37504 4.97068 2.11532 5.98626 2.0598 7.1326C2.00427 8.12132 2.01323 9.10109 2.01323 10.088C2.01323 11.0749 2.00427 12.0565 2.0598 13.0434C2.11532 14.1898 2.37683 15.2071 3.2151 16.0454C4.05515 16.8855 5.07074 17.1452 6.21708 17.2007C7.2058 17.2562 8.18556 17.2473 9.17249 17.2473C10.1612 17.2473 11.141 17.2562 12.1279 17.2007C13.2742 17.1452 14.2916 16.8837 15.1299 16.0454C15.9699 15.2054 16.2297 14.1898 16.2852 13.0434C16.3425 12.0565 16.3317 11.0767 16.3317 10.088ZM14.7555 14.3116C14.6248 14.6376 14.4672 14.8812 14.2146 15.1319C13.962 15.3845 13.7202 15.5421 13.3942 15.6728C12.4521 16.0472 10.2149 15.963 9.1707 15.963C8.12645 15.963 5.8875 16.0472 4.94535 15.6746C4.61936 15.5439 4.37577 15.3863 4.125 15.1337C3.87245 14.8812 3.71483 14.6394 3.58407 14.3134C3.21151 13.3694 3.2957 11.1323 3.2957 10.088C3.2957 9.04377 3.21151 6.80482 3.58407 5.86267C3.71483 5.53668 3.87245 5.29308 4.125 5.04232C4.37756 4.79156 4.61936 4.63215 4.94535 4.50139C5.8875 4.12883 8.12645 4.21302 9.1707 4.21302C10.2149 4.21302 12.4539 4.12883 13.396 4.50139C13.722 4.63215 13.9656 4.78977 14.2164 5.04232C14.4689 5.29488 14.6266 5.53668 14.7573 5.86267C15.1299 6.80482 15.0457 9.04377 15.0457 10.088C15.0457 11.1323 15.1299 13.3694 14.7555 14.3116Z" fill="white"/>
</svg>
