<svg width="543" height="573" viewBox="0 0 543 573" fill="none" xmlns="http://www.w3.org/2000/svg">
<path fill-rule="evenodd" clip-rule="evenodd" d="M437.757 217.724C461.911 285.658 538.138 310.332 542.805 381.629C547.006 445.819 467.966 469.415 420.513 503.131C376.044 534.727 331.381 566.752 277.026 570.467C219.537 574.396 147.576 575.624 109.937 524.356C71.2517 471.663 104.735 402.307 84.6579 339.306C65.5481 279.34 5.94855 243.865 0.721128 181.638C-4.83088 115.546 24.6811 70.0219 75.2055 38.0747C124.948 6.62187 191.653 8.11432 250.963 10.7215C308.268 13.2405 379.535 -22.3656 417.075 28.0155C458.708 83.8904 414.13 151.274 437.757 217.724Z" fill="#F1F0F0"/>
</svg>
