<svg width="1228" height="956" viewBox="0 0 1228 956" fill="none" xmlns="http://www.w3.org/2000/svg">
<path d="M864.388 573.403C833.879 602.083 907.594 697.969 826.331 739.253C745.067 780.536 625.695 632.347 575.898 620.294C526.102 608.242 500.557 711.003 466.431 745.932C432.305 780.862 344.619 844.979 307.062 796.388C269.505 747.797 305.229 673.779 348.871 635.679C392.512 597.58 549.294 568.509 511.625 495.032C473.955 421.555 255.61 498.331 294.45 386.577C333.29 274.822 521.409 488.473 590.052 388.388C641.576 324.603 537.671 288.476 537.775 242.352C537.879 196.227 564.648 154.35 650.508 134.113C736.368 113.876 794.711 158.325 807.587 200.11C820.463 241.894 796.943 309.419 819.304 339.549C841.665 369.678 1034.64 316.073 1045.99 405.345C1057.34 494.617 894.89 544.665 864.388 573.403Z" fill="#F1F0F0"/>
<path d="M248.622 384.572C248.622 384.572 149.642 406.976 135.189 372.871C120.735 338.765 160.679 311.67 205.845 337.078C251.01 362.487 248.622 384.572 248.622 384.572Z" fill="#F1F0F0"/>
<path d="M284.49 855.677C284.49 855.677 278.188 919.869 240.293 925.004C202.399 930.139 171.608 892.473 195.395 866.652C219.183 840.831 284.49 855.677 284.49 855.677Z" fill="#F1F0F0"/>
<path d="M1091.57 471.054C1091.57 471.054 1159.05 527.507 1176.72 498.081C1194.38 468.656 1170.08 441.046 1132.73 450.714C1095.38 460.383 1091.57 471.054 1091.57 471.054Z" fill="#F1F0F0"/>
</svg>
