<svg width="135" height="112" viewBox="0 0 135 112" fill="none" xmlns="http://www.w3.org/2000/svg">
<path fill-rule="evenodd" clip-rule="evenodd" d="M63.5973 11.6652C78.4056 9.37851 92.8221 -4.82666 106.295 1.70077C119.48 8.0888 119.048 26.9001 123.64 40.7556C128.258 54.6866 139.414 69.3695 133.122 82.6361C126.782 96.0055 108.099 96.5918 94.4214 102.369C84.2596 106.66 74.637 111.964 63.5973 112C52.5304 112.035 42.4124 107.712 32.6277 102.568C21.2249 96.5732 7.66881 91.6707 2.53745 79.8998C-2.7241 67.8303 1.0654 53.7492 6.03039 41.556C10.7368 29.9979 18.4415 19.321 29.5543 13.5508C39.8825 8.18803 52.0848 13.4429 63.5973 11.6652Z" fill="#FEE343"/>
</svg>
