<svg width="129" height="25" viewBox="0 0 129 25" fill="none" xmlns="http://www.w3.org/2000/svg">
<path d="M11.5489 2.92705C11.8483 2.00574 13.1517 2.00574 13.4511 2.92705L15.0819 7.9463C15.2158 8.35833 15.5997 8.63729 16.033 8.63729H21.3105C22.2792 8.63729 22.682 9.8769 21.8983 10.4463L17.6287 13.5484C17.2782 13.803 17.1315 14.2544 17.2654 14.6664L18.8963 19.6857C19.1956 20.607 18.1411 21.3731 17.3574 20.8037L13.0878 17.7016C12.7373 17.447 12.2627 17.447 11.9122 17.7016L7.64258 20.8037C6.85887 21.3731 5.80439 20.607 6.10374 19.6857L7.7346 14.6664C7.86847 14.2544 7.72181 13.803 7.37132 13.5484L3.10169 10.4463C2.31798 9.8769 2.72075 8.63729 3.68948 8.63729H8.96703C9.40026 8.63729 9.78421 8.35833 9.91809 7.9463L11.5489 2.92705Z" fill="#FEE343"/>
<path d="M63.5489 2.92705C63.8483 2.00574 65.1517 2.00574 65.4511 2.92705L67.0819 7.9463C67.2158 8.35833 67.5997 8.63729 68.033 8.63729H73.3105C74.2792 8.63729 74.682 9.8769 73.8983 10.4463L69.6287 13.5484C69.2782 13.803 69.1315 14.2544 69.2654 14.6664L70.8963 19.6857C71.1956 20.607 70.1411 21.3731 69.3574 20.8037L65.0878 17.7016C64.7373 17.447 64.2627 17.447 63.9122 17.7016L59.6426 20.8037C58.8589 21.3731 57.8044 20.607 58.1037 19.6857L59.7346 14.6664C59.8685 14.2544 59.7218 13.803 59.3713 13.5484L55.1017 10.4463C54.318 9.8769 54.7208 8.63729 55.6895 8.63729H60.967C61.4003 8.63729 61.7842 8.35833 61.9181 7.9463L63.5489 2.92705Z" fill="#FEE343"/>
<path d="M37.5489 2.92705C37.8483 2.00574 39.1517 2.00574 39.4511 2.92705L41.0819 7.9463C41.2158 8.35833 41.5997 8.63729 42.033 8.63729H47.3105C48.2792 8.63729 48.682 9.8769 47.8983 10.4463L43.6287 13.5484C43.2782 13.803 43.1315 14.2544 43.2654 14.6664L44.8963 19.6857C45.1956 20.607 44.1411 21.3731 43.3574 20.8037L39.0878 17.7016C38.7373 17.447 38.2627 17.447 37.9122 17.7016L33.6426 20.8037C32.8589 21.3731 31.8044 20.607 32.1037 19.6857L33.7346 14.6664C33.8685 14.2544 33.7218 13.803 33.3713 13.5484L29.1017 10.4463C28.318 9.8769 28.7208 8.63729 29.6895 8.63729H34.967C35.4003 8.63729 35.7842 8.35833 35.9181 7.9463L37.5489 2.92705Z" fill="#FEE343"/>
<path d="M89.5489 2.92705C89.8483 2.00574 91.1517 2.00574 91.4511 2.92705L93.0819 7.9463C93.2158 8.35833 93.5997 8.63729 94.033 8.63729H99.3105C100.279 8.63729 100.682 9.8769 99.8983 10.4463L95.6287 13.5484C95.2782 13.803 95.1315 14.2544 95.2654 14.6664L96.8963 19.6857C97.1956 20.607 96.1411 21.3731 95.3574 20.8037L91.0878 17.7016C90.7373 17.447 90.2627 17.447 89.9122 17.7016L85.6426 20.8037C84.8589 21.3731 83.8044 20.607 84.1037 19.6857L85.7346 14.6664C85.8685 14.2544 85.7218 13.803 85.3713 13.5484L81.1017 10.4463C80.318 9.8769 80.7208 8.63729 81.6895 8.63729H86.967C87.4003 8.63729 87.7842 8.35833 87.9181 7.9463L89.5489 2.92705Z" fill="#FEE343"/>
<path d="M115.549 2.92705C115.848 2.00574 117.152 2.00574 117.451 2.92705L119.082 7.9463C119.216 8.35833 119.6 8.63729 120.033 8.63729H125.311C126.279 8.63729 126.682 9.8769 125.898 10.4463L121.629 13.5484C121.278 13.803 121.132 14.2544 121.265 14.6664L122.896 19.6857C123.196 20.607 122.141 21.3731 121.357 20.8037L117.088 17.7016C116.737 17.447 116.263 17.447 115.912 17.7016L111.643 20.8037C110.859 21.3731 109.804 20.607 110.104 19.6857L111.735 14.6664C111.868 14.2544 111.722 13.803 111.371 13.5484L107.102 10.4463C106.318 9.8769 106.721 8.63729 107.689 8.63729H112.967C113.4 8.63729 113.784 8.35833 113.918 7.9463L115.549 2.92705Z" fill="#FEE343"/>
</svg>
