<svg width="19" height="20" viewBox="0 0 19 20" fill="none" xmlns="http://www.w3.org/2000/svg">
<g clip-path="url(#clip0)">
<path d="M16.8158 0.917236H2.40461C1.31968 0.917236 0.439453 1.79746 0.439453 2.88239V17.2935C0.439453 18.3785 1.31968 19.2587 2.40461 19.2587H16.8158C17.9007 19.2587 18.7809 18.3785 18.7809 17.2935V2.88239C18.7809 1.79746 17.9007 0.917236 16.8158 0.917236ZM14.8138 7.41863C14.8219 7.53326 14.8219 7.65199 14.8219 7.76663C14.8219 11.3162 12.1199 15.4062 7.1824 15.4062C5.6594 15.4062 4.24694 14.964 3.05966 14.2025C3.27665 14.2271 3.48545 14.2353 3.70653 14.2353C4.96341 14.2353 6.11794 13.8095 7.0391 13.0889C5.86001 13.0644 4.86924 12.2906 4.52944 11.2261C4.94294 11.2875 5.3155 11.2875 5.74128 11.177C4.51306 10.9273 3.59189 9.84642 3.59189 8.54041V8.50765C3.94808 8.70826 4.36567 8.83109 4.80374 8.84746C4.43545 8.60249 4.13353 8.27015 3.92493 7.8801C3.71634 7.49005 3.60754 7.05442 3.60827 6.6121C3.60827 6.11262 3.73928 5.65408 3.97264 5.25696C5.29503 6.8864 7.28065 7.95086 9.50783 8.06549C9.12708 6.24363 10.4904 4.76567 12.128 4.76567C12.9018 4.76567 13.5978 5.0891 14.0891 5.61314C14.695 5.49851 15.2764 5.27333 15.7922 4.96628C15.5916 5.58858 15.1699 6.11262 14.6131 6.44424C15.1536 6.38692 15.6776 6.23544 16.1607 6.02664C15.7963 6.56297 15.3378 7.03788 14.8138 7.41863Z" fill="black"/>
</g>
<defs>
<clipPath id="clip0">
<rect width="18.3415" height="18.3415" fill="white" transform="translate(0.439453 0.917236)"/>
</clipPath>
</defs>
</svg>
